<svg width="331" height="210" viewBox="0 0 331 210" fill="none" xmlns="http://www.w3.org/2000/svg">
<g clip-path="url(#clip0_369_5774)">
<path d="M119.98 124.265C122.38 117.665 124.38 111.165 126.08 104.665C124.48 98.1652 122.38 91.6652 119.98 85.0652C107.28 50.1652 86.8801 22.7652 66.0801 9.36523C45.2801 22.6652 24.8801 50.1652 12.1801 85.0652C9.78008 91.6652 7.78008 98.1652 6.08008 104.665C7.68008 111.165 9.78008 117.665 12.1801 124.265C24.8801 159.165 45.2801 186.565 66.0801 199.965C86.8801 186.665 107.28 159.165 119.98 124.265Z" fill="#FCDC04"/>
<path d="M57.3798 136.066L56.1798 113.266H58.3798L60.7798 136.066H71.3798L73.7798 113.266H75.9798L74.7798 136.066H88.8798V106.266H68.6798L67.1798 128.966H64.9798L63.4798 106.266H43.2798V136.066H57.3798Z" fill="black"/>
<path d="M56.8798 80.3652V103.165H75.2798V80.3652H88.8798V73.3652H43.2798V80.3652H56.8798Z" fill="black"/>
<path d="M88.8798 40.3652H43.2798V45.3652H55.8798V65.2652H43.2798V70.1652H88.8798V65.2652H76.2798V45.3652H88.8798V40.3652Z" fill="black"/>
<path d="M54.1798 159.366C46.3798 159.366 42.7798 155.266 42.7798 149.466C42.7798 143.566 46.2798 139.166 54.1798 139.166H88.8798V145.266H60.1798C58.1798 145.266 58.1798 148.566 60.1798 148.566H78.0798C85.8798 148.566 89.4798 153.066 89.4798 158.966C89.4798 164.766 85.9798 168.866 78.0798 168.866H43.3798V162.566H72.3798C74.2798 162.566 74.2798 159.266 72.3798 159.266H54.1798V159.366Z" fill="black"/>
<path d="M119.98 124.266C107.28 159.166 86.8801 186.566 66.0801 199.966C78.9801 208.266 91.8801 211.066 103.28 206.966C129.58 197.366 138.48 153.666 125.98 104.666C124.38 111.166 122.38 117.666 119.98 124.266Z" fill="black"/>
<path d="M66.0801 9.36566C53.1801 1.06565 40.2801 -1.73434 28.8801 2.36566C2.5801 11.9657 -6.31988 55.6657 6.18012 104.666C7.78012 98.1657 9.88009 91.6657 12.2801 85.0657C24.8801 50.1656 45.2801 22.7657 66.0801 9.36566Z" fill="black"/>
<path d="M119.98 85.0657C122.38 91.6657 124.38 98.1657 126.08 104.666C138.58 55.6657 129.68 11.9657 103.38 2.36566C91.9802 -1.73434 78.9802 1.06565 66.1802 9.36566C86.8802 22.7657 107.28 50.1656 119.98 85.0657Z" fill="#D90000"/>
<path d="M12.18 124.266C9.78003 117.666 7.78002 111.166 6.08002 104.666C-6.41998 153.666 2.48 197.366 28.78 206.966C40.18 211.066 53.18 208.266 65.98 199.966C45.28 186.666 24.88 159.166 12.18 124.266Z" fill="#D90000"/>
<path d="M162.18 33.9648H157.98V58.5648H162.18V33.9648Z" fill="black"/>
<path d="M171.38 48.1652C171.38 47.1652 171.58 46.3652 171.98 45.7652C172.38 45.1652 172.88 44.6652 173.48 44.3652C174.08 44.0652 174.78 43.8652 175.48 43.8652C176.18 43.8652 176.88 44.0652 177.38 44.3652C177.88 44.6652 178.38 45.1652 178.68 45.7652C178.98 46.3652 179.18 47.1652 179.18 48.0652V58.5652H183.18V47.2652C183.18 45.6652 182.88 44.3652 182.28 43.3652C181.68 42.3652 180.88 41.5652 179.88 41.0652C178.88 40.5652 177.78 40.3652 176.58 40.3652C175.48 40.3652 174.58 40.5652 173.68 40.9652C172.88 41.3652 172.18 41.7652 171.68 42.3652C171.48 42.5652 171.38 42.7652 171.18 42.9652V40.8652H167.38V58.5652H171.38V48.1652Z" fill="black"/>
<path d="M188.58 36.0648V40.7648H185.68V44.1649H188.58V52.7648C188.58 54.7648 189.08 56.2649 189.98 57.1649C190.98 58.0649 192.38 58.5648 194.38 58.5648H196.18V55.0648H195.08C194.28 55.0648 193.68 54.8648 193.18 54.4648C192.78 54.0648 192.48 53.3648 192.48 52.4648V44.0648H196.18V40.6649H192.48V35.9648H188.58V36.0648Z" fill="black"/>
<path d="M211.28 41.3656C210.08 40.6656 208.68 40.2656 206.98 40.2656C205.28 40.2656 203.78 40.6656 202.48 41.3656C201.18 42.1656 200.18 43.1656 199.48 44.6656C198.78 46.0656 198.38 47.7656 198.38 49.6656C198.38 51.5656 198.78 53.1656 199.48 54.6656C200.18 56.0656 201.28 57.1656 202.58 57.8656C203.88 58.5656 205.48 58.9656 207.18 58.9656C208.68 58.9656 209.98 58.6656 211.08 58.1656C212.18 57.6656 212.98 56.9656 213.68 56.1656C214.28 55.3656 214.68 54.5656 214.88 53.6656H210.98C210.78 54.1656 210.38 54.5656 209.78 54.9656C209.18 55.3656 208.28 55.5656 207.38 55.5656C206.48 55.5656 205.58 55.3656 204.88 54.9656C204.18 54.5656 203.58 53.9656 203.18 53.2656C202.78 52.5656 202.58 51.7656 202.58 50.7656C202.58 50.7656 202.58 50.7656 202.58 50.6656H215.18V49.0656C215.18 47.2656 214.88 45.7656 214.18 44.3656C213.48 42.9656 212.48 42.0656 211.28 41.3656ZM204.68 44.1656C205.38 43.7656 206.08 43.5656 206.98 43.5656C208.28 43.5656 209.28 43.9656 209.98 44.7656C210.68 45.4656 210.98 46.4656 211.08 47.7656H202.48C202.58 47.0656 202.78 46.3656 203.08 45.7656C203.48 45.0656 203.98 44.5656 204.68 44.1656Z" fill="black"/>
<path d="M222.98 33.166H218.98V58.566H222.98V33.166Z" fill="black"/>
<path d="M231.68 33.166H227.68V58.566H231.68V33.166Z" fill="black"/>
<path d="M240.48 40.7656H236.48V58.6656H240.48V40.7656Z" fill="black"/>
<path d="M240.18 33.6649C239.68 33.1649 239.08 32.9648 238.38 32.9648C237.68 32.9648 237.08 33.1649 236.58 33.6649C236.08 34.1649 235.88 34.6649 235.88 35.3649C235.88 36.0649 236.08 36.6649 236.58 37.1649C237.08 37.6649 237.58 37.8649 238.38 37.8649C239.18 37.8649 239.68 37.6649 240.18 37.1649C240.68 36.6649 240.88 36.0649 240.88 35.3649C240.98 34.7649 240.68 34.1649 240.18 33.6649Z" fill="black"/>
<path d="M245.28 44.5652C244.58 45.9652 244.18 47.5652 244.18 49.4652C244.18 51.3652 244.58 52.9652 245.28 54.3652C245.98 55.7652 246.98 56.7652 248.18 57.4652C249.38 58.1652 250.68 58.5652 252.08 58.5652C253.28 58.5652 254.38 58.3652 255.18 57.9652C255.98 57.5652 256.68 57.0652 257.18 56.3652C257.28 56.2652 257.38 56.1652 257.48 55.9652V57.4652C257.48 58.5652 257.28 59.4652 256.98 60.2652C256.68 61.0652 256.08 61.6652 255.38 62.0652C254.68 62.4652 253.88 62.6652 252.98 62.6652C251.78 62.6652 250.88 62.4652 250.28 62.0652C249.68 61.6652 249.18 61.0652 248.98 60.3652H244.98C245.08 61.3652 245.38 62.2652 246.08 63.0652C246.78 63.8652 247.58 64.6652 248.78 65.1652C249.98 65.6652 251.38 65.9652 252.98 65.9652C254.78 65.9652 256.28 65.6652 257.58 64.9652C258.88 64.2652 259.88 63.2652 260.58 61.9652C261.28 60.6652 261.58 59.1652 261.58 57.4652V40.7652H257.68V42.9652C257.58 42.7652 257.48 42.5652 257.28 42.4652C256.78 41.8652 256.08 41.3652 255.28 40.9652C254.38 40.5652 253.38 40.3652 252.28 40.3652C250.88 40.3652 249.48 40.7652 248.28 41.4652C246.98 42.0652 245.98 43.1652 245.28 44.5652ZM248.78 46.4652C249.18 45.5652 249.68 44.9652 250.38 44.4652C251.08 43.9652 251.88 43.7652 252.78 43.7652C253.78 43.7652 254.58 43.9652 255.28 44.4652C255.98 44.9652 256.58 45.5652 256.88 46.4652C257.28 47.2652 257.48 48.2652 257.48 49.3652V49.4652C257.48 50.5652 257.28 51.4652 256.88 52.3652C256.48 53.1652 255.98 53.8652 255.28 54.3652C254.58 54.8652 253.78 55.0652 252.78 55.0652C251.88 55.0652 251.08 54.8652 250.38 54.3652C249.68 53.8652 249.18 53.2652 248.78 52.3652C248.38 51.4652 248.18 50.5652 248.18 49.4652C248.18 48.3652 248.48 47.3652 248.78 46.4652Z" fill="black"/>
<path d="M278.08 41.3656C276.88 40.6656 275.48 40.2656 273.78 40.2656C272.08 40.2656 270.58 40.6656 269.28 41.3656C267.98 42.1656 266.98 43.1656 266.28 44.6656C265.58 46.0656 265.18 47.7656 265.18 49.6656C265.18 51.5656 265.58 53.1656 266.28 54.6656C266.98 56.0656 268.08 57.1656 269.38 57.8656C270.68 58.5656 272.28 58.9656 273.98 58.9656C275.48 58.9656 276.78 58.6656 277.88 58.1656C278.98 57.6656 279.78 56.9656 280.48 56.1656C281.08 55.3656 281.48 54.5656 281.68 53.6656H277.78C277.58 54.1656 277.18 54.5656 276.58 54.9656C275.98 55.3656 275.08 55.5656 274.18 55.5656C273.28 55.5656 272.38 55.3656 271.68 54.9656C270.98 54.5656 270.38 53.9656 269.98 53.2656C269.58 52.5656 269.38 51.7656 269.38 50.7656C269.38 50.7656 269.38 50.7656 269.38 50.6656H281.98V49.0656C281.98 47.2656 281.68 45.7656 280.98 44.3656C280.28 42.9656 279.38 42.0656 278.08 41.3656ZM271.48 44.1656C272.18 43.7656 272.88 43.5656 273.78 43.5656C275.08 43.5656 276.08 43.9656 276.78 44.7656C277.48 45.4656 277.78 46.4656 277.88 47.7656H269.28C269.38 47.0656 269.58 46.3656 269.88 45.7656C270.38 45.0656 270.88 44.5656 271.48 44.1656Z" fill="black"/>
<path d="M285.88 40.7652V58.5652H289.88V48.1652C289.88 47.1652 290.08 46.3652 290.48 45.7652C290.88 45.1652 291.38 44.6652 291.98 44.3652C292.58 44.0652 293.28 43.8652 293.98 43.8652C294.68 43.8652 295.38 44.0652 295.88 44.3652C296.38 44.6652 296.88 45.1652 297.18 45.7652C297.48 46.3652 297.68 47.1652 297.68 48.0652V58.5652H301.68V47.2652C301.68 45.6652 301.38 44.3652 300.78 43.3652C300.18 42.3652 299.38 41.5652 298.38 41.0652C297.38 40.5652 296.28 40.3652 295.08 40.3652C293.98 40.3652 293.08 40.5652 292.18 40.9652C291.38 41.3652 290.68 41.7652 290.18 42.3652C289.98 42.5652 289.88 42.7652 289.68 42.9652V40.8652H285.88V40.7652Z" fill="black"/>
<path d="M314.68 58.5648V55.0648H313.58C312.78 55.0648 312.18 54.8648 311.68 54.4648C311.28 54.0648 310.98 53.3648 310.98 52.4648V44.0648H314.68V40.6649H310.98V35.9648H306.98V40.6649H304.08V44.0648H306.98V52.6649C306.98 54.6649 307.48 56.1648 308.38 57.0648C309.38 57.9648 310.78 58.4648 312.78 58.4648H314.68V58.5648Z" fill="black"/>
<path d="M164.08 95.3656H168.28V74.4656H175.98V70.7656H156.28V74.4656H164.08V95.3656Z" fill="black"/>
<path d="M180.28 85.9648C180.28 84.9648 180.48 84.0649 180.88 83.3649C181.28 82.6649 181.88 82.1648 182.68 81.7648C183.48 81.4648 184.38 81.2648 185.38 81.2648H186.38V77.4648H185.48C184.08 77.4648 182.78 77.7648 181.78 78.4648C181.08 78.8648 180.48 79.5649 180.08 80.3649V77.5648H176.28V95.4648H180.28V85.9648Z" fill="black"/>
<path d="M204.08 95.3664V83.5664C204.08 82.1664 203.78 81.0664 203.18 80.0664C202.58 79.0664 201.68 78.3664 200.58 77.8664C199.48 77.3664 198.18 77.0664 196.78 77.0664C194.68 77.0664 192.98 77.5664 191.68 78.5664C190.38 79.5664 189.58 80.8664 189.28 82.3664H193.08C193.28 81.7664 193.68 81.2664 194.28 80.8664C194.88 80.4664 195.68 80.2664 196.68 80.2664C197.38 80.2664 197.98 80.3664 198.48 80.6664C198.98 80.8664 199.48 81.2664 199.68 81.7664C199.88 82.2664 200.08 82.7664 200.08 83.4664V84.4664H195.78C193.58 84.4664 191.78 84.9664 190.48 85.9664C189.18 86.9664 188.58 88.3664 188.58 90.0664C188.58 91.1664 188.88 92.1664 189.38 93.0664C189.88 93.8664 190.68 94.5664 191.58 94.9664C192.48 95.4664 193.58 95.6664 194.68 95.6664C195.98 95.6664 197.18 95.3664 198.28 94.7664C199.08 94.3664 199.68 93.8664 200.18 93.1664V95.1664H204.08V95.3664ZM199.48 90.6664C199.08 91.2664 198.48 91.6664 197.88 92.0664C197.28 92.4664 196.48 92.5664 195.68 92.5664C194.78 92.5664 193.98 92.3664 193.48 91.9664C192.98 91.5664 192.68 90.9664 192.68 90.1664C192.68 89.3664 192.98 88.7664 193.58 88.3664C194.18 87.9664 195.08 87.7664 196.08 87.7664H200.18V88.8664C200.08 89.4664 199.88 90.0664 199.48 90.6664Z" fill="black"/>
<path d="M208.68 77.5652V95.4652H212.68V85.0652C212.68 84.0652 212.88 83.2652 213.28 82.6652C213.68 82.0652 214.18 81.5652 214.78 81.2652C215.38 80.9652 216.08 80.7652 216.78 80.7652C217.48 80.7652 218.18 80.9652 218.68 81.2652C219.18 81.5652 219.68 82.0652 219.98 82.6652C220.28 83.2652 220.48 84.0652 220.48 84.9652V95.5652H224.48V84.2652C224.48 82.6652 224.18 81.3652 223.58 80.3652C222.98 79.3652 222.18 78.5652 221.18 78.0652C220.18 77.5652 219.08 77.3652 217.88 77.3652C216.78 77.3652 215.88 77.5652 214.98 77.9652C214.18 78.3652 213.48 78.7652 212.98 79.3652C212.78 79.5652 212.68 79.7652 212.48 79.9652V77.5652H208.68Z" fill="black"/>
<path d="M239.38 95.0664C240.48 94.5664 241.38 93.9664 241.98 93.0664C242.58 92.1664 242.88 91.1664 242.88 89.9664C242.88 88.3664 242.38 87.1664 241.48 86.3664C240.48 85.5664 239.18 84.9664 237.58 84.7664L234.38 84.3664C233.68 84.2664 233.08 84.0664 232.68 83.7664C232.28 83.4664 232.08 83.0664 232.08 82.4664C232.08 81.8664 232.38 81.2664 232.88 80.8664C233.48 80.4664 234.18 80.2664 235.08 80.2664C235.98 80.2664 236.68 80.4664 237.28 80.7664C237.88 81.1664 238.28 81.6664 238.48 82.3664H242.38C242.18 81.2664 241.78 80.3664 241.18 79.4664C240.58 78.6664 239.68 78.0664 238.68 77.6664C237.68 77.2664 236.48 77.0664 235.18 77.0664C233.78 77.0664 232.58 77.2664 231.58 77.7664C230.58 78.2664 229.68 78.9664 229.08 79.7664C228.48 80.6664 228.18 81.6664 228.18 82.7664C228.18 84.2664 228.68 85.4664 229.58 86.2664C230.48 87.0664 231.78 87.5664 233.38 87.7664L236.58 88.1664C237.28 88.2664 237.88 88.4664 238.28 88.7664C238.68 89.0664 238.88 89.5664 238.88 90.0664C238.88 90.7664 238.58 91.3664 237.98 91.7664C237.38 92.1664 236.58 92.3664 235.58 92.3664C234.58 92.3664 233.68 92.1664 232.98 91.7664C232.28 91.3664 231.88 90.7664 231.68 90.0664H227.78C227.88 91.3664 228.38 92.3664 229.08 93.2664C229.78 94.0664 230.78 94.6664 231.88 95.0664C232.98 95.4664 234.18 95.6664 235.48 95.6664C237.08 95.7664 238.28 95.5664 239.38 95.0664Z" fill="black"/>
<path d="M246.68 77.5664V102.066H250.68V93.3664C250.78 93.4664 250.88 93.6664 250.98 93.7664C251.48 94.3664 252.18 94.8664 252.98 95.2664C253.88 95.6664 254.88 95.8664 255.98 95.8664C257.38 95.8664 258.78 95.4664 259.98 94.7664C261.18 94.0664 262.18 92.9664 262.88 91.5664C263.58 90.1664 263.98 88.4664 263.98 86.4664C263.98 84.4664 263.58 82.7664 262.88 81.3664C262.18 79.9664 261.18 78.8664 259.98 78.1664C258.78 77.4664 257.48 77.0664 256.08 77.0664C254.88 77.0664 253.88 77.2664 252.98 77.6664C252.08 78.0664 251.38 78.6664 250.88 79.2664C250.78 79.4664 250.68 79.5664 250.48 79.7664V77.5664H246.68ZM250.48 86.3664C250.48 85.2664 250.68 84.1664 251.08 83.3664C251.48 82.5664 252.08 81.8664 252.78 81.3664C253.48 80.8664 254.28 80.6664 255.28 80.6664C256.18 80.6664 256.98 80.8664 257.68 81.3664C258.38 81.8664 258.98 82.5664 259.28 83.3664C259.58 84.1664 259.88 85.2664 259.88 86.3664C259.88 87.4664 259.68 88.5664 259.28 89.3664C258.88 90.1664 258.38 90.9664 257.68 91.3664C256.98 91.8664 256.18 92.0664 255.28 92.0664C254.38 92.0664 253.48 91.8664 252.78 91.3664C252.08 90.8664 251.48 90.2664 251.08 89.3664C250.68 88.4664 250.48 87.4664 250.48 86.3664Z" fill="black"/>
<path d="M280.18 78.2664C278.88 77.4664 277.28 77.0664 275.58 77.0664C273.88 77.0664 272.28 77.4664 270.98 78.2664C269.68 79.0664 268.58 80.1664 267.88 81.5664C267.18 82.9664 266.78 84.5664 266.78 86.3664C266.78 88.1664 267.18 89.7664 267.88 91.1664C268.58 92.5664 269.68 93.6664 270.98 94.4664C272.28 95.2664 273.88 95.6664 275.58 95.6664C277.28 95.6664 278.88 95.2664 280.18 94.4664C281.48 93.6664 282.58 92.5664 283.28 91.1664C283.98 89.7664 284.38 88.1664 284.38 86.3664C284.38 84.5664 283.98 82.9664 283.28 81.5664C282.48 80.1664 281.48 79.0664 280.18 78.2664ZM279.78 89.4664C279.38 90.3664 278.88 91.0664 278.18 91.4664C277.48 91.9664 276.58 92.1664 275.68 92.1664C274.78 92.1664 273.88 91.9664 273.18 91.4664C272.48 90.9664 271.88 90.2664 271.58 89.4664C271.28 88.6664 270.98 87.5664 270.98 86.4664C270.98 85.3664 271.18 84.2664 271.58 83.4664C271.98 82.6664 272.48 81.8664 273.18 81.4664C273.88 80.9664 274.78 80.7664 275.68 80.7664C276.58 80.7664 277.48 80.9664 278.18 81.4664C278.88 81.9664 279.48 82.6664 279.78 83.4664C280.08 84.2664 280.38 85.3664 280.38 86.4664C280.28 87.5664 280.08 88.5664 279.78 89.4664Z" fill="black"/>
<path d="M292.08 85.9648C292.08 84.9648 292.28 84.0649 292.68 83.3649C293.08 82.6649 293.68 82.1648 294.48 81.7648C295.28 81.4648 296.18 81.2648 297.18 81.2648H298.18V77.4648H297.28C295.88 77.4648 294.58 77.7648 293.58 78.4648C292.88 78.8648 292.28 79.5649 291.88 80.3649V77.5648H288.08V95.4648H292.08V85.9648Z" fill="black"/>
<path d="M311.18 80.8652V77.5652H307.48V72.8652H303.48V77.5652H300.58V80.9652H303.48V89.5652C303.48 91.5652 303.98 93.0652 304.88 93.9652C305.88 94.8652 307.28 95.3652 309.28 95.3652H311.08V91.8652H309.98C309.18 91.8652 308.58 91.6652 308.08 91.2652C307.68 90.8652 307.38 90.1652 307.38 89.2652V80.8652H311.18Z" fill="black"/>
<path d="M163.18 107.566H157.98V132.166H161.98V114.366L169.28 132.066H172.68L179.98 114.366V132.166H183.98V107.566H178.88L170.98 126.566L163.18 107.566Z" fill="black"/>
<path d="M192.48 131.365C193.78 132.165 195.38 132.565 197.08 132.565C198.78 132.565 200.38 132.165 201.68 131.365C202.98 130.565 204.08 129.465 204.78 128.065C205.48 126.665 205.88 125.065 205.88 123.265C205.88 121.465 205.48 119.865 204.78 118.465C204.08 117.065 202.98 115.965 201.68 115.165C200.38 114.365 198.78 113.965 197.08 113.965C195.38 113.965 193.78 114.365 192.48 115.165C191.18 115.965 190.08 117.065 189.38 118.465C188.68 119.865 188.28 121.465 188.28 123.265C188.28 125.065 188.68 126.665 189.38 128.065C190.18 129.465 191.18 130.565 192.48 131.365ZM192.98 120.265C193.38 119.365 193.88 118.665 194.58 118.265C195.28 117.765 196.18 117.565 197.08 117.565C197.98 117.565 198.88 117.765 199.58 118.265C200.28 118.765 200.88 119.465 201.18 120.265C201.48 121.065 201.78 122.165 201.78 123.265C201.78 124.365 201.58 125.465 201.18 126.265C200.78 127.065 200.28 127.865 199.58 128.265C198.88 128.765 197.98 128.965 197.08 128.965C196.18 128.965 195.28 128.765 194.58 128.265C193.88 127.765 193.28 127.065 192.98 126.265C192.68 125.465 192.38 124.365 192.38 123.265C192.38 122.065 192.58 121.065 192.98 120.265Z" fill="black"/>
<path d="M222.08 114.665C221.08 114.165 219.98 113.965 218.78 113.965C217.68 113.965 216.78 114.165 215.88 114.565C215.08 114.965 214.38 115.365 213.88 115.965C213.68 116.165 213.58 116.365 213.38 116.565V114.465H209.58V132.365H213.58V121.965C213.58 120.965 213.78 120.165 214.18 119.565C214.58 118.965 215.08 118.465 215.68 118.165C216.28 117.865 216.98 117.665 217.68 117.665C218.38 117.665 219.08 117.865 219.58 118.165C220.08 118.465 220.58 118.965 220.88 119.565C221.18 120.165 221.38 120.965 221.38 121.865V132.465H225.38V121.165C225.38 119.565 225.08 118.265 224.48 117.265C223.88 115.865 223.08 115.165 222.08 114.665Z" fill="black"/>
<path d="M233.88 114.365H229.88V132.265H233.88V114.365Z" fill="black"/>
<path d="M233.68 107.266C233.18 106.766 232.58 106.566 231.88 106.566C231.18 106.566 230.58 106.766 230.08 107.266C229.58 107.766 229.38 108.266 229.38 108.966C229.38 109.666 229.58 110.266 230.08 110.766C230.58 111.266 231.08 111.466 231.88 111.466C232.68 111.466 233.18 111.266 233.68 110.766C234.18 110.266 234.38 109.666 234.38 108.966C234.38 108.366 234.18 107.766 233.68 107.266Z" fill="black"/>
<path d="M241.28 130.766C242.28 131.666 243.68 132.166 245.68 132.166H247.48V128.666H246.38C245.58 128.666 244.98 128.466 244.48 128.066C244.08 127.666 243.78 126.966 243.78 126.066V117.666H247.48V114.266H243.78V109.566H239.78V114.266H236.98V117.666H239.88V126.266C239.78 128.366 240.28 129.866 241.28 130.766Z" fill="black"/>
<path d="M253.78 131.365C255.08 132.165 256.68 132.565 258.38 132.565C260.08 132.565 261.68 132.165 262.98 131.365C264.28 130.565 265.38 129.465 266.08 128.065C266.78 126.665 267.18 125.065 267.18 123.265C267.18 121.465 266.78 119.865 266.08 118.465C265.38 117.065 264.28 115.965 262.98 115.165C261.68 114.365 260.08 113.965 258.38 113.965C256.68 113.965 255.08 114.365 253.78 115.165C252.48 115.965 251.38 117.065 250.68 118.465C249.98 119.865 249.58 121.465 249.58 123.265C249.58 125.065 249.98 126.665 250.68 128.065C251.48 129.465 252.48 130.565 253.78 131.365ZM254.18 120.265C254.58 119.365 255.08 118.665 255.78 118.265C256.48 117.765 257.38 117.565 258.28 117.565C259.18 117.565 260.08 117.765 260.78 118.265C261.48 118.765 262.08 119.465 262.38 120.265C262.68 121.065 262.98 122.165 262.98 123.265C262.98 124.365 262.78 125.465 262.38 126.265C261.98 127.065 261.48 127.865 260.78 128.265C260.08 128.765 259.18 128.965 258.28 128.965C257.38 128.965 256.48 128.765 255.78 128.265C255.08 127.765 254.48 127.065 254.18 126.265C253.88 125.465 253.58 124.365 253.58 123.265C253.68 122.065 253.88 121.065 254.18 120.265Z" fill="black"/>
<path d="M270.98 114.366V132.266H274.98V122.766C274.98 121.766 275.18 120.866 275.58 120.166C275.98 119.466 276.58 118.966 277.38 118.566C278.18 118.266 279.08 118.066 280.08 118.066H281.08V114.266H280.18C278.78 114.266 277.48 114.566 276.48 115.266C275.78 115.666 275.18 116.366 274.78 117.166V114.366H270.98Z" fill="black"/>
<path d="M288.28 114.365H284.28V132.265H288.28V114.365Z" fill="black"/>
<path d="M288.08 107.266C287.58 106.766 286.98 106.566 286.28 106.566C285.58 106.566 284.98 106.766 284.48 107.266C283.98 107.766 283.78 108.266 283.78 108.966C283.78 109.666 283.98 110.266 284.48 110.766C284.98 111.266 285.48 111.466 286.28 111.466C287.08 111.466 287.58 111.266 288.08 110.766C288.58 110.266 288.78 109.666 288.78 108.966C288.78 108.366 288.58 107.766 288.08 107.266Z" fill="black"/>
<path d="M308.78 120.865C308.78 119.265 308.48 117.965 307.88 116.965C307.28 115.965 306.48 115.165 305.48 114.665C304.48 114.165 303.38 113.965 302.18 113.965C301.08 113.965 300.18 114.165 299.28 114.565C298.48 114.965 297.78 115.365 297.28 115.965C297.08 116.165 296.98 116.365 296.78 116.565V114.465H292.98V132.365H296.98V121.965C296.98 120.965 297.18 120.165 297.58 119.565C297.98 118.965 298.48 118.465 299.08 118.165C299.68 117.865 300.38 117.665 301.08 117.665C301.78 117.665 302.48 117.865 302.98 118.165C303.48 118.465 303.98 118.965 304.28 119.565C304.58 120.165 304.78 120.965 304.78 121.865V132.465H308.78V120.865Z" fill="black"/>
<path d="M329.68 114.365H325.78V116.565C325.68 116.365 325.58 116.165 325.38 116.065C324.88 115.465 324.18 114.965 323.38 114.565C322.48 114.165 321.48 113.965 320.38 113.965C318.98 113.965 317.58 114.365 316.38 115.065C315.18 115.765 314.18 116.865 313.48 118.165C312.78 119.565 312.38 121.165 312.38 123.065C312.38 124.965 312.78 126.565 313.48 127.965C314.18 129.365 315.18 130.365 316.38 131.065C317.58 131.765 318.88 132.165 320.28 132.165C321.48 132.165 322.58 131.965 323.38 131.565C324.18 131.165 324.88 130.665 325.38 129.965C325.48 129.865 325.58 129.765 325.68 129.565V131.065C325.68 132.165 325.48 133.065 325.18 133.865C324.88 134.665 324.28 135.265 323.58 135.665C322.88 136.065 322.08 136.265 321.18 136.265C319.98 136.265 319.08 136.065 318.48 135.665C317.88 135.265 317.38 134.665 317.18 133.965H313.28C313.38 134.965 313.68 135.865 314.38 136.665C315.08 137.465 315.88 138.265 317.08 138.765C318.28 139.265 319.68 139.565 321.28 139.565C323.08 139.565 324.58 139.265 325.88 138.565C327.18 137.865 328.18 136.865 328.88 135.565C329.58 134.265 329.88 132.765 329.88 131.065V114.365H329.68ZM325.18 125.965C324.78 126.765 324.28 127.465 323.58 127.965C322.88 128.465 322.08 128.665 321.08 128.665C320.18 128.665 319.38 128.465 318.68 127.965C317.98 127.465 317.48 126.865 317.08 125.965C316.68 125.065 316.48 124.165 316.48 123.065C316.48 121.965 316.68 121.065 317.08 120.165C317.48 119.265 317.98 118.665 318.68 118.165C319.38 117.665 320.18 117.465 321.08 117.465C322.08 117.465 322.88 117.665 323.58 118.165C324.28 118.665 324.88 119.265 325.18 120.165C325.58 120.965 325.78 121.965 325.78 123.065V123.165C325.78 124.165 325.58 125.065 325.18 125.965Z" fill="black"/>
<path d="M168.98 165.265C168.28 165.565 167.38 165.765 166.48 165.765C164.98 165.765 163.78 165.465 162.88 164.865C161.98 164.265 161.28 163.365 160.98 162.365H156.78C156.98 163.865 157.58 165.165 158.48 166.265C159.38 167.365 160.48 168.165 161.88 168.665C163.28 169.265 164.78 169.465 166.48 169.465C168.28 169.465 169.88 169.165 171.18 168.565C172.58 167.965 173.58 167.065 174.38 165.865C175.08 164.665 175.48 163.365 175.48 161.765C175.48 159.765 174.88 158.165 173.68 157.065C172.48 155.965 170.88 155.265 168.78 154.865L164.48 154.165C163.48 153.965 162.68 153.665 162.08 153.165C161.48 152.665 161.28 151.965 161.28 151.165C161.28 150.465 161.48 149.765 161.88 149.265C162.28 148.765 162.88 148.265 163.58 148.065C164.28 147.765 165.08 147.665 165.88 147.665C167.18 147.665 168.28 147.965 169.08 148.465C169.98 148.965 170.58 149.865 170.88 150.965H175.08C174.88 149.465 174.28 148.265 173.48 147.165C172.68 146.165 171.58 145.365 170.28 144.765C168.98 144.265 167.48 143.965 165.88 143.965C164.28 143.965 162.78 144.265 161.38 144.865C160.08 145.465 158.98 146.365 158.18 147.565C157.38 148.765 156.98 150.065 156.98 151.565C156.98 153.365 157.58 154.765 158.68 155.965C159.78 157.065 161.38 157.865 163.48 158.165L167.78 158.865C168.88 159.065 169.78 159.365 170.38 159.965C170.98 160.465 171.28 161.265 171.28 162.165C171.28 162.865 171.08 163.565 170.68 164.165C170.28 164.565 169.68 164.965 168.98 165.265Z" fill="black"/>
<path d="M185.88 175.666L195.48 151.166H191.18L186.48 163.866L181.78 151.166H177.48L184.38 168.666L181.58 175.666H185.88Z" fill="black"/>
<path d="M202.08 154.566C202.68 154.166 203.38 153.966 204.28 153.966C205.18 153.966 205.88 154.166 206.48 154.466C207.08 154.866 207.48 155.366 207.68 156.066H211.58C211.38 154.966 210.98 154.066 210.38 153.166C209.78 152.366 208.88 151.766 207.88 151.366C206.88 150.966 205.68 150.766 204.38 150.766C202.98 150.766 201.78 150.966 200.78 151.466C199.78 151.966 198.88 152.666 198.28 153.466C197.68 154.366 197.38 155.366 197.38 156.466C197.38 157.966 197.88 159.166 198.78 159.966C199.68 160.766 200.98 161.266 202.58 161.466L205.78 161.866C206.48 161.966 207.08 162.166 207.48 162.466C207.88 162.766 208.08 163.266 208.08 163.766C208.08 164.466 207.78 165.066 207.18 165.466C206.58 165.866 205.78 166.066 204.78 166.066C203.78 166.066 202.88 165.866 202.18 165.466C201.48 165.066 201.08 164.466 200.88 163.766H196.98C197.08 165.066 197.58 166.066 198.28 166.966C198.98 167.766 199.98 168.366 201.08 168.766C202.18 169.166 203.38 169.366 204.68 169.366C206.08 169.366 207.28 169.166 208.38 168.666C209.48 168.166 210.38 167.566 210.98 166.666C211.58 165.766 211.88 164.766 211.88 163.566C211.88 161.966 211.38 160.766 210.48 159.966C209.48 159.166 208.18 158.566 206.58 158.366L203.38 157.966C202.68 157.866 202.08 157.666 201.68 157.366C201.28 157.066 201.08 156.666 201.08 156.066C201.18 155.566 201.48 154.966 202.08 154.566Z" fill="black"/>
<path d="M222.78 168.965H224.58V165.465H223.48C222.68 165.465 222.08 165.265 221.58 164.865C221.18 164.465 220.88 163.765 220.88 162.865V154.465H224.58V151.065H220.98V146.365H216.98V151.065H214.08V154.465H216.98V163.065C216.98 165.065 217.48 166.565 218.38 167.465C219.38 168.565 220.78 168.965 222.78 168.965Z" fill="black"/>
<path d="M230.98 168.266C232.28 168.966 233.88 169.366 235.58 169.366C237.08 169.366 238.38 169.066 239.48 168.566C240.58 168.066 241.38 167.366 242.08 166.566C242.68 165.766 243.08 164.966 243.28 164.066H239.38C239.18 164.566 238.78 164.966 238.18 165.366C237.58 165.766 236.68 165.966 235.78 165.966C234.88 165.966 233.98 165.766 233.28 165.366C232.58 164.966 231.98 164.366 231.58 163.666C231.18 162.966 230.98 162.166 230.98 161.166C230.98 161.166 230.98 161.166 230.98 161.066H243.58V159.566C243.58 157.766 243.28 156.266 242.58 154.866C241.88 153.466 240.98 152.466 239.78 151.766C238.58 151.066 237.18 150.666 235.48 150.666C233.78 150.666 232.28 151.066 230.98 151.766C229.68 152.466 228.68 153.566 227.98 155.066C227.28 156.466 226.88 158.166 226.88 160.066C226.88 161.966 227.28 163.566 227.98 165.066C228.58 166.466 229.68 167.566 230.98 168.266ZM232.98 154.566C233.68 154.166 234.38 153.966 235.28 153.966C236.58 153.966 237.58 154.366 238.28 155.166C238.98 155.866 239.28 156.866 239.38 158.166H230.78C230.88 157.466 231.08 156.766 231.38 156.166C231.88 155.466 232.38 154.966 232.98 154.566Z" fill="black"/>
<path d="M247.28 168.966H251.28V158.266C251.28 157.466 251.48 156.666 251.78 156.066C252.18 155.466 252.58 155.066 253.08 154.766C253.58 154.466 254.28 154.266 254.88 154.266C255.48 154.266 256.08 154.366 256.58 154.666C257.08 154.966 257.48 155.366 257.78 155.966C258.08 156.566 258.28 157.266 258.28 158.166V168.966H262.28V158.266C262.28 157.466 262.48 156.666 262.78 156.066C263.08 155.466 263.58 155.066 264.08 154.766C264.68 154.466 265.28 154.266 265.88 154.266C266.48 154.266 267.08 154.366 267.68 154.666C268.18 154.966 268.58 155.366 268.88 155.966C269.18 156.566 269.38 157.266 269.38 158.166V168.966H273.38V157.466C273.38 155.966 273.08 154.666 272.48 153.666C271.88 152.666 271.08 151.866 270.18 151.366C269.18 150.866 268.18 150.666 267.08 150.666C266.08 150.666 265.18 150.866 264.28 151.266C263.38 151.666 262.68 152.166 261.98 152.766C261.68 153.066 261.48 153.266 261.28 153.566C260.88 152.866 260.28 152.266 259.68 151.766C258.58 151.066 257.38 150.666 256.08 150.666C255.18 150.666 254.28 150.866 253.48 151.166C252.68 151.566 251.98 151.966 251.48 152.566C251.28 152.766 251.18 152.966 250.98 153.166V151.066H247.18V168.966H247.28Z" fill="black"/>
</g>
<defs>
<clipPath id="clip0_369_5774">
<rect width="330" height="209" />
</clipPath>
</defs>
</svg>
