<svg width="330" height="209" viewBox="0 0 330 209" fill="none" xmlns="http://www.w3.org/2000/svg">
<path d="M119.48 123.765C121.88 117.165 123.88 110.665 125.58 104.165C123.98 97.6652 121.88 91.1652 119.48 84.5652C106.78 49.6652 86.3801 22.2652 65.5801 8.86523C44.7801 22.1652 24.3801 49.6652 11.6801 84.5652C9.28008 91.1652 7.28008 97.6652 5.58008 104.165C7.18008 110.665 9.28008 117.165 11.6801 123.765C24.3801 158.665 44.7801 186.065 65.5801 199.465C86.3801 186.165 106.78 158.665 119.48 123.765Z" fill="#FCDC04"/>
<path d="M56.8798 135.566L55.6798 112.766H57.8798L60.2798 135.566H70.8798L73.2798 112.766H75.4798L74.2798 135.566H88.3798V105.766H68.1798L66.6798 128.466H64.4798L62.9798 105.766H42.7798V135.566H56.8798Z" fill="black"/>
<path d="M56.3798 79.8652V102.665H74.7798V79.8652H88.3798V72.8652H42.7798V79.8652H56.3798Z" fill="black"/>
<path d="M88.3798 39.8652H42.7798V44.8652H55.3798V64.7652H42.7798V69.6652H88.3798V64.7652H75.7798V44.8652H88.3798V39.8652Z" fill="black"/>
<path d="M53.6798 158.866C45.8798 158.866 42.2798 154.766 42.2798 148.966C42.2798 143.066 45.7798 138.666 53.6798 138.666H88.3798V144.766H59.6798C57.6798 144.766 57.6798 148.066 59.6798 148.066H77.5798C85.3798 148.066 88.9798 152.566 88.9798 158.466C88.9798 164.266 85.4798 168.366 77.5798 168.366H42.8798V162.066H71.8798C73.7798 162.066 73.7798 158.766 71.8798 158.766H53.6798V158.866Z" fill="black"/>
<path d="M119.48 123.766C106.78 158.666 86.3801 186.066 65.5801 199.466C78.4801 207.766 91.3801 210.566 102.78 206.466C129.08 196.866 137.98 153.166 125.48 104.166C123.88 110.666 121.88 117.166 119.48 123.766Z" fill="black"/>
<path d="M65.5801 8.86566C52.6801 0.565657 39.7801 -2.23434 28.3801 1.86566C2.0801 11.4657 -6.81988 55.1657 5.68012 104.166C7.28012 97.6657 9.38009 91.1657 11.7801 84.5657C24.3801 49.6656 44.7801 22.2657 65.5801 8.86566Z" fill="black"/>
<path d="M119.48 84.5657C121.88 91.1657 123.88 97.6657 125.58 104.166C138.08 55.1657 129.18 11.4657 102.88 1.86566C91.4802 -2.23434 78.4802 0.565657 65.6802 8.86566C86.3802 22.2657 106.78 49.6656 119.48 84.5657Z" fill="#D90000"/>
<path d="M11.68 123.766C9.28003 117.166 7.28002 110.666 5.58002 104.166C-6.91998 153.166 1.98 196.866 28.28 206.466C39.68 210.566 52.68 207.766 65.48 199.466C44.78 186.166 24.38 158.666 11.68 123.766Z" fill="#D90000"/>
<path d="M161.68 33.4648H157.48V58.0648H161.68V33.4648Z" fill="black"/>
<path d="M170.88 47.6652C170.88 46.6652 171.08 45.8652 171.48 45.2652C171.88 44.6652 172.38 44.1652 172.98 43.8652C173.58 43.5652 174.28 43.3652 174.98 43.3652C175.68 43.3652 176.38 43.5652 176.88 43.8652C177.38 44.1652 177.88 44.6652 178.18 45.2652C178.48 45.8652 178.68 46.6652 178.68 47.5652V58.0652H182.68V46.7652C182.68 45.1652 182.38 43.8652 181.78 42.8652C181.18 41.8652 180.38 41.0652 179.38 40.5652C178.38 40.0652 177.28 39.8652 176.08 39.8652C174.98 39.8652 174.08 40.0652 173.18 40.4652C172.38 40.8652 171.68 41.2652 171.18 41.8652C170.98 42.0652 170.88 42.2652 170.68 42.4652V40.3652H166.88V58.0652H170.88V47.6652Z" fill="black"/>
<path d="M188.08 35.5648V40.2648H185.18V43.6649H188.08V52.2648C188.08 54.2648 188.58 55.7649 189.48 56.6649C190.48 57.5649 191.88 58.0648 193.88 58.0648H195.68V54.5648H194.58C193.78 54.5648 193.18 54.3648 192.68 53.9648C192.28 53.5648 191.98 52.8648 191.98 51.9648V43.5648H195.68V40.1649H191.98V35.4648H188.08V35.5648Z" fill="black"/>
<path d="M210.78 40.8656C209.58 40.1656 208.18 39.7656 206.48 39.7656C204.78 39.7656 203.28 40.1656 201.98 40.8656C200.68 41.6656 199.68 42.6656 198.98 44.1656C198.28 45.5656 197.88 47.2656 197.88 49.1656C197.88 51.0656 198.28 52.6656 198.98 54.1656C199.68 55.5656 200.78 56.6656 202.08 57.3656C203.38 58.0656 204.98 58.4656 206.68 58.4656C208.18 58.4656 209.48 58.1656 210.58 57.6656C211.68 57.1656 212.48 56.4656 213.18 55.6656C213.78 54.8656 214.18 54.0656 214.38 53.1656H210.48C210.28 53.6656 209.88 54.0656 209.28 54.4656C208.68 54.8656 207.78 55.0656 206.88 55.0656C205.98 55.0656 205.08 54.8656 204.38 54.4656C203.68 54.0656 203.08 53.4656 202.68 52.7656C202.28 52.0656 202.08 51.2656 202.08 50.2656C202.08 50.2656 202.08 50.2656 202.08 50.1656H214.68V48.5656C214.68 46.7656 214.38 45.2656 213.68 43.8656C212.98 42.4656 211.98 41.5656 210.78 40.8656ZM204.18 43.6656C204.88 43.2656 205.58 43.0656 206.48 43.0656C207.78 43.0656 208.78 43.4656 209.48 44.2656C210.18 44.9656 210.48 45.9656 210.58 47.2656H201.98C202.08 46.5656 202.28 45.8656 202.58 45.2656C202.98 44.5656 203.48 44.0656 204.18 43.6656Z" fill="black"/>
<path d="M222.48 32.666H218.48V58.066H222.48V32.666Z" fill="black"/>
<path d="M231.18 32.666H227.18V58.066H231.18V32.666Z" fill="black"/>
<path d="M239.98 40.2656H235.98V58.1656H239.98V40.2656Z" fill="black"/>
<path d="M239.68 33.1649C239.18 32.6649 238.58 32.4648 237.88 32.4648C237.18 32.4648 236.58 32.6649 236.08 33.1649C235.58 33.6649 235.38 34.1649 235.38 34.8649C235.38 35.5649 235.58 36.1649 236.08 36.6649C236.58 37.1649 237.08 37.3649 237.88 37.3649C238.68 37.3649 239.18 37.1649 239.68 36.6649C240.18 36.1649 240.38 35.5649 240.38 34.8649C240.48 34.2649 240.18 33.6649 239.68 33.1649Z" fill="black"/>
<path d="M244.78 44.0652C244.08 45.4652 243.68 47.0652 243.68 48.9652C243.68 50.8652 244.08 52.4652 244.78 53.8652C245.48 55.2652 246.48 56.2652 247.68 56.9652C248.88 57.6652 250.18 58.0652 251.58 58.0652C252.78 58.0652 253.88 57.8652 254.68 57.4652C255.48 57.0652 256.18 56.5652 256.68 55.8652C256.78 55.7652 256.88 55.6652 256.98 55.4652V56.9652C256.98 58.0652 256.78 58.9652 256.48 59.7652C256.18 60.5652 255.58 61.1652 254.88 61.5652C254.18 61.9652 253.38 62.1652 252.48 62.1652C251.28 62.1652 250.38 61.9652 249.78 61.5652C249.18 61.1652 248.68 60.5652 248.48 59.8652H244.48C244.58 60.8652 244.88 61.7652 245.58 62.5652C246.28 63.3652 247.08 64.1652 248.28 64.6652C249.48 65.1652 250.88 65.4652 252.48 65.4652C254.28 65.4652 255.78 65.1652 257.08 64.4652C258.38 63.7652 259.38 62.7652 260.08 61.4652C260.78 60.1652 261.08 58.6652 261.08 56.9652V40.2652H257.18V42.4652C257.08 42.2652 256.98 42.0652 256.78 41.9652C256.28 41.3652 255.58 40.8652 254.78 40.4652C253.88 40.0652 252.88 39.8652 251.78 39.8652C250.38 39.8652 248.98 40.2652 247.78 40.9652C246.48 41.5652 245.48 42.6652 244.78 44.0652ZM248.28 45.9652C248.68 45.0652 249.18 44.4652 249.88 43.9652C250.58 43.4652 251.38 43.2652 252.28 43.2652C253.28 43.2652 254.08 43.4652 254.78 43.9652C255.48 44.4652 256.08 45.0652 256.38 45.9652C256.78 46.7652 256.98 47.7652 256.98 48.8652V48.9652C256.98 50.0652 256.78 50.9652 256.38 51.8652C255.98 52.6652 255.48 53.3652 254.78 53.8652C254.08 54.3652 253.28 54.5652 252.28 54.5652C251.38 54.5652 250.58 54.3652 249.88 53.8652C249.18 53.3652 248.68 52.7652 248.28 51.8652C247.88 50.9652 247.68 50.0652 247.68 48.9652C247.68 47.8652 247.98 46.8652 248.28 45.9652Z" fill="black"/>
<path d="M277.58 40.8656C276.38 40.1656 274.98 39.7656 273.28 39.7656C271.58 39.7656 270.08 40.1656 268.78 40.8656C267.48 41.6656 266.48 42.6656 265.78 44.1656C265.08 45.5656 264.68 47.2656 264.68 49.1656C264.68 51.0656 265.08 52.6656 265.78 54.1656C266.48 55.5656 267.58 56.6656 268.88 57.3656C270.18 58.0656 271.78 58.4656 273.48 58.4656C274.98 58.4656 276.28 58.1656 277.38 57.6656C278.48 57.1656 279.28 56.4656 279.98 55.6656C280.58 54.8656 280.98 54.0656 281.18 53.1656H277.28C277.08 53.6656 276.68 54.0656 276.08 54.4656C275.48 54.8656 274.58 55.0656 273.68 55.0656C272.78 55.0656 271.88 54.8656 271.18 54.4656C270.48 54.0656 269.88 53.4656 269.48 52.7656C269.08 52.0656 268.88 51.2656 268.88 50.2656C268.88 50.2656 268.88 50.2656 268.88 50.1656H281.48V48.5656C281.48 46.7656 281.18 45.2656 280.48 43.8656C279.78 42.4656 278.88 41.5656 277.58 40.8656ZM270.98 43.6656C271.68 43.2656 272.38 43.0656 273.28 43.0656C274.58 43.0656 275.58 43.4656 276.28 44.2656C276.98 44.9656 277.28 45.9656 277.38 47.2656H268.78C268.88 46.5656 269.08 45.8656 269.38 45.2656C269.88 44.5656 270.38 44.0656 270.98 43.6656Z" fill="black"/>
<path d="M285.38 40.2652V58.0652H289.38V47.6652C289.38 46.6652 289.58 45.8652 289.98 45.2652C290.38 44.6652 290.88 44.1652 291.48 43.8652C292.08 43.5652 292.78 43.3652 293.48 43.3652C294.18 43.3652 294.88 43.5652 295.38 43.8652C295.88 44.1652 296.38 44.6652 296.68 45.2652C296.98 45.8652 297.18 46.6652 297.18 47.5652V58.0652H301.18V46.7652C301.18 45.1652 300.88 43.8652 300.28 42.8652C299.68 41.8652 298.88 41.0652 297.88 40.5652C296.88 40.0652 295.78 39.8652 294.58 39.8652C293.48 39.8652 292.58 40.0652 291.68 40.4652C290.88 40.8652 290.18 41.2652 289.68 41.8652C289.48 42.0652 289.38 42.2652 289.18 42.4652V40.3652H285.38V40.2652Z" fill="black"/>
<path d="M314.18 58.0648V54.5648H313.08C312.28 54.5648 311.68 54.3648 311.18 53.9648C310.78 53.5648 310.48 52.8648 310.48 51.9648V43.5648H314.18V40.1649H310.48V35.4648H306.48V40.1649H303.58V43.5648H306.48V52.1649C306.48 54.1649 306.98 55.6648 307.88 56.5648C308.88 57.4648 310.28 57.9648 312.28 57.9648H314.18V58.0648Z" fill="black"/>
<path d="M163.58 94.8656H167.78V73.9656H175.48V70.2656H155.78V73.9656H163.58V94.8656Z" fill="black"/>
<path d="M179.78 85.4648C179.78 84.4648 179.98 83.5649 180.38 82.8649C180.78 82.1649 181.38 81.6648 182.18 81.2648C182.98 80.9648 183.88 80.7648 184.88 80.7648H185.88V76.9648H184.98C183.58 76.9648 182.28 77.2648 181.28 77.9648C180.58 78.3648 179.98 79.0649 179.58 79.8649V77.0648H175.78V94.9648H179.78V85.4648Z" fill="black"/>
<path d="M203.58 94.8664V83.0664C203.58 81.6664 203.28 80.5664 202.68 79.5664C202.08 78.5664 201.18 77.8664 200.08 77.3664C198.98 76.8664 197.68 76.5664 196.28 76.5664C194.18 76.5664 192.48 77.0664 191.18 78.0664C189.88 79.0664 189.08 80.3664 188.78 81.8664H192.58C192.78 81.2664 193.18 80.7664 193.78 80.3664C194.38 79.9664 195.18 79.7664 196.18 79.7664C196.88 79.7664 197.48 79.8664 197.98 80.1664C198.48 80.3664 198.98 80.7664 199.18 81.2664C199.38 81.7664 199.58 82.2664 199.58 82.9664V83.9664H195.28C193.08 83.9664 191.28 84.4664 189.98 85.4664C188.68 86.4664 188.08 87.8664 188.08 89.5664C188.08 90.6664 188.38 91.6664 188.88 92.5664C189.38 93.3664 190.18 94.0664 191.08 94.4664C191.98 94.9664 193.08 95.1664 194.18 95.1664C195.48 95.1664 196.68 94.8664 197.78 94.2664C198.58 93.8664 199.18 93.3664 199.68 92.6664V94.6664H203.58V94.8664ZM198.98 90.1664C198.58 90.7664 197.98 91.1664 197.38 91.5664C196.78 91.9664 195.98 92.0664 195.18 92.0664C194.28 92.0664 193.48 91.8664 192.98 91.4664C192.48 91.0664 192.18 90.4664 192.18 89.6664C192.18 88.8664 192.48 88.2664 193.08 87.8664C193.68 87.4664 194.58 87.2664 195.58 87.2664H199.68V88.3664C199.58 88.9664 199.38 89.5664 198.98 90.1664Z" fill="black"/>
<path d="M208.18 77.0652V94.9652H212.18V84.5652C212.18 83.5652 212.38 82.7652 212.78 82.1652C213.18 81.5652 213.68 81.0652 214.28 80.7652C214.88 80.4652 215.58 80.2652 216.28 80.2652C216.98 80.2652 217.68 80.4652 218.18 80.7652C218.68 81.0652 219.18 81.5652 219.48 82.1652C219.78 82.7652 219.98 83.5652 219.98 84.4652V95.0652H223.98V83.7652C223.98 82.1652 223.68 80.8652 223.08 79.8652C222.48 78.8652 221.68 78.0652 220.68 77.5652C219.68 77.0652 218.58 76.8652 217.38 76.8652C216.28 76.8652 215.38 77.0652 214.48 77.4652C213.68 77.8652 212.98 78.2652 212.48 78.8652C212.28 79.0652 212.18 79.2652 211.98 79.4652V77.0652H208.18Z" fill="black"/>
<path d="M238.88 94.5664C239.98 94.0664 240.88 93.4664 241.48 92.5664C242.08 91.6664 242.38 90.6664 242.38 89.4664C242.38 87.8664 241.88 86.6664 240.98 85.8664C239.98 85.0664 238.68 84.4664 237.08 84.2664L233.88 83.8664C233.18 83.7664 232.58 83.5664 232.18 83.2664C231.78 82.9664 231.58 82.5664 231.58 81.9664C231.58 81.3664 231.88 80.7664 232.38 80.3664C232.98 79.9664 233.68 79.7664 234.58 79.7664C235.48 79.7664 236.18 79.9664 236.78 80.2664C237.38 80.6664 237.78 81.1664 237.98 81.8664H241.88C241.68 80.7664 241.28 79.8664 240.68 78.9664C240.08 78.1664 239.18 77.5664 238.18 77.1664C237.18 76.7664 235.98 76.5664 234.68 76.5664C233.28 76.5664 232.08 76.7664 231.08 77.2664C230.08 77.7664 229.18 78.4664 228.58 79.2664C227.98 80.1664 227.68 81.1664 227.68 82.2664C227.68 83.7664 228.18 84.9664 229.08 85.7664C229.98 86.5664 231.28 87.0664 232.88 87.2664L236.08 87.6664C236.78 87.7664 237.38 87.9664 237.78 88.2664C238.18 88.5664 238.38 89.0664 238.38 89.5664C238.38 90.2664 238.08 90.8664 237.48 91.2664C236.88 91.6664 236.08 91.8664 235.08 91.8664C234.08 91.8664 233.18 91.6664 232.48 91.2664C231.78 90.8664 231.38 90.2664 231.18 89.5664H227.28C227.38 90.8664 227.88 91.8664 228.58 92.7664C229.28 93.5664 230.28 94.1664 231.38 94.5664C232.48 94.9664 233.68 95.1664 234.98 95.1664C236.58 95.2664 237.78 95.0664 238.88 94.5664Z" fill="black"/>
<path d="M246.18 77.0664V101.566H250.18V92.8664C250.28 92.9664 250.38 93.1664 250.48 93.2664C250.98 93.8664 251.68 94.3664 252.48 94.7664C253.38 95.1664 254.38 95.3664 255.48 95.3664C256.88 95.3664 258.28 94.9664 259.48 94.2664C260.68 93.5664 261.68 92.4664 262.38 91.0664C263.08 89.6664 263.48 87.9664 263.48 85.9664C263.48 83.9664 263.08 82.2664 262.38 80.8664C261.68 79.4664 260.68 78.3664 259.48 77.6664C258.28 76.9664 256.98 76.5664 255.58 76.5664C254.38 76.5664 253.38 76.7664 252.48 77.1664C251.58 77.5664 250.88 78.1664 250.38 78.7664C250.28 78.9664 250.18 79.0664 249.98 79.2664V77.0664H246.18ZM249.98 85.8664C249.98 84.7664 250.18 83.6664 250.58 82.8664C250.98 82.0664 251.58 81.3664 252.28 80.8664C252.98 80.3664 253.78 80.1664 254.78 80.1664C255.68 80.1664 256.48 80.3664 257.18 80.8664C257.88 81.3664 258.48 82.0664 258.78 82.8664C259.08 83.6664 259.38 84.7664 259.38 85.8664C259.38 86.9664 259.18 88.0664 258.78 88.8664C258.38 89.6664 257.88 90.4664 257.18 90.8664C256.48 91.3664 255.68 91.5664 254.78 91.5664C253.88 91.5664 252.98 91.3664 252.28 90.8664C251.58 90.3664 250.98 89.7664 250.58 88.8664C250.18 87.9664 249.98 86.9664 249.98 85.8664Z" fill="black"/>
<path d="M279.68 77.7664C278.38 76.9664 276.78 76.5664 275.08 76.5664C273.38 76.5664 271.78 76.9664 270.48 77.7664C269.18 78.5664 268.08 79.6664 267.38 81.0664C266.68 82.4664 266.28 84.0664 266.28 85.8664C266.28 87.6664 266.68 89.2664 267.38 90.6664C268.08 92.0664 269.18 93.1664 270.48 93.9664C271.78 94.7664 273.38 95.1664 275.08 95.1664C276.78 95.1664 278.38 94.7664 279.68 93.9664C280.98 93.1664 282.08 92.0664 282.78 90.6664C283.48 89.2664 283.88 87.6664 283.88 85.8664C283.88 84.0664 283.48 82.4664 282.78 81.0664C281.98 79.6664 280.98 78.5664 279.68 77.7664ZM279.28 88.9664C278.88 89.8664 278.38 90.5664 277.68 90.9664C276.98 91.4664 276.08 91.6664 275.18 91.6664C274.28 91.6664 273.38 91.4664 272.68 90.9664C271.98 90.4664 271.38 89.7664 271.08 88.9664C270.78 88.1664 270.48 87.0664 270.48 85.9664C270.48 84.8664 270.68 83.7664 271.08 82.9664C271.48 82.1664 271.98 81.3664 272.68 80.9664C273.38 80.4664 274.28 80.2664 275.18 80.2664C276.08 80.2664 276.98 80.4664 277.68 80.9664C278.38 81.4664 278.98 82.1664 279.28 82.9664C279.58 83.7664 279.88 84.8664 279.88 85.9664C279.78 87.0664 279.58 88.0664 279.28 88.9664Z" fill="black"/>
<path d="M291.58 85.4648C291.58 84.4648 291.78 83.5649 292.18 82.8649C292.58 82.1649 293.18 81.6648 293.98 81.2648C294.78 80.9648 295.68 80.7648 296.68 80.7648H297.68V76.9648H296.78C295.38 76.9648 294.08 77.2648 293.08 77.9648C292.38 78.3648 291.78 79.0649 291.38 79.8649V77.0648H287.58V94.9648H291.58V85.4648Z" fill="black"/>
<path d="M310.68 80.3652V77.0652H306.98V72.3652H302.98V77.0652H300.08V80.4652H302.98V89.0652C302.98 91.0652 303.48 92.5652 304.38 93.4652C305.38 94.3652 306.78 94.8652 308.78 94.8652H310.58V91.3652H309.48C308.68 91.3652 308.08 91.1652 307.58 90.7652C307.18 90.3652 306.88 89.6652 306.88 88.7652V80.3652H310.68Z" fill="black"/>
<path d="M162.68 107.066H157.48V131.666H161.48V113.866L168.78 131.566H172.18L179.48 113.866V131.666H183.48V107.066H178.38L170.48 126.066L162.68 107.066Z" fill="black"/>
<path d="M191.98 130.865C193.28 131.665 194.88 132.065 196.58 132.065C198.28 132.065 199.88 131.665 201.18 130.865C202.48 130.065 203.58 128.965 204.28 127.565C204.98 126.165 205.38 124.565 205.38 122.765C205.38 120.965 204.98 119.365 204.28 117.965C203.58 116.565 202.48 115.465 201.18 114.665C199.88 113.865 198.28 113.465 196.58 113.465C194.88 113.465 193.28 113.865 191.98 114.665C190.68 115.465 189.58 116.565 188.88 117.965C188.18 119.365 187.78 120.965 187.78 122.765C187.78 124.565 188.18 126.165 188.88 127.565C189.68 128.965 190.68 130.065 191.98 130.865ZM192.48 119.765C192.88 118.865 193.38 118.165 194.08 117.765C194.78 117.265 195.68 117.065 196.58 117.065C197.48 117.065 198.38 117.265 199.08 117.765C199.78 118.265 200.38 118.965 200.68 119.765C200.98 120.565 201.28 121.665 201.28 122.765C201.28 123.865 201.08 124.965 200.68 125.765C200.28 126.565 199.78 127.365 199.08 127.765C198.38 128.265 197.48 128.465 196.58 128.465C195.68 128.465 194.78 128.265 194.08 127.765C193.38 127.265 192.78 126.565 192.48 125.765C192.18 124.965 191.88 123.865 191.88 122.765C191.88 121.565 192.08 120.565 192.48 119.765Z" fill="black"/>
<path d="M221.58 114.165C220.58 113.665 219.48 113.465 218.28 113.465C217.18 113.465 216.28 113.665 215.38 114.065C214.58 114.465 213.88 114.865 213.38 115.465C213.18 115.665 213.08 115.865 212.88 116.065V113.965H209.08V131.865H213.08V121.465C213.08 120.465 213.28 119.665 213.68 119.065C214.08 118.465 214.58 117.965 215.18 117.665C215.78 117.365 216.48 117.165 217.18 117.165C217.88 117.165 218.58 117.365 219.08 117.665C219.58 117.965 220.08 118.465 220.38 119.065C220.68 119.665 220.88 120.465 220.88 121.365V131.965H224.88V120.665C224.88 119.065 224.58 117.765 223.98 116.765C223.38 115.365 222.58 114.665 221.58 114.165Z" fill="black"/>
<path d="M233.38 113.865H229.38V131.765H233.38V113.865Z" fill="black"/>
<path d="M233.18 106.766C232.68 106.266 232.08 106.066 231.38 106.066C230.68 106.066 230.08 106.266 229.58 106.766C229.08 107.266 228.88 107.766 228.88 108.466C228.88 109.166 229.08 109.766 229.58 110.266C230.08 110.766 230.58 110.966 231.38 110.966C232.18 110.966 232.68 110.766 233.18 110.266C233.68 109.766 233.88 109.166 233.88 108.466C233.88 107.866 233.68 107.266 233.18 106.766Z" fill="black"/>
<path d="M240.78 130.266C241.78 131.166 243.18 131.666 245.18 131.666H246.98V128.166H245.88C245.08 128.166 244.48 127.966 243.98 127.566C243.58 127.166 243.28 126.466 243.28 125.566V117.166H246.98V113.766H243.28V109.066H239.28V113.766H236.48V117.166H239.38V125.766C239.28 127.866 239.78 129.366 240.78 130.266Z" fill="black"/>
<path d="M253.28 130.865C254.58 131.665 256.18 132.065 257.88 132.065C259.58 132.065 261.18 131.665 262.48 130.865C263.78 130.065 264.88 128.965 265.58 127.565C266.28 126.165 266.68 124.565 266.68 122.765C266.68 120.965 266.28 119.365 265.58 117.965C264.88 116.565 263.78 115.465 262.48 114.665C261.18 113.865 259.58 113.465 257.88 113.465C256.18 113.465 254.58 113.865 253.28 114.665C251.98 115.465 250.88 116.565 250.18 117.965C249.48 119.365 249.08 120.965 249.08 122.765C249.08 124.565 249.48 126.165 250.18 127.565C250.98 128.965 251.98 130.065 253.28 130.865ZM253.68 119.765C254.08 118.865 254.58 118.165 255.28 117.765C255.98 117.265 256.88 117.065 257.78 117.065C258.68 117.065 259.58 117.265 260.28 117.765C260.98 118.265 261.58 118.965 261.88 119.765C262.18 120.565 262.48 121.665 262.48 122.765C262.48 123.865 262.28 124.965 261.88 125.765C261.48 126.565 260.98 127.365 260.28 127.765C259.58 128.265 258.68 128.465 257.78 128.465C256.88 128.465 255.98 128.265 255.28 127.765C254.58 127.265 253.98 126.565 253.68 125.765C253.38 124.965 253.08 123.865 253.08 122.765C253.18 121.565 253.38 120.565 253.68 119.765Z" fill="black"/>
<path d="M270.48 113.866V131.766H274.48V122.266C274.48 121.266 274.68 120.366 275.08 119.666C275.48 118.966 276.08 118.466 276.88 118.066C277.68 117.766 278.58 117.566 279.58 117.566H280.58V113.766H279.68C278.28 113.766 276.98 114.066 275.98 114.766C275.28 115.166 274.68 115.866 274.28 116.666V113.866H270.48Z" fill="black"/>
<path d="M287.78 113.865H283.78V131.765H287.78V113.865Z" fill="black"/>
<path d="M287.58 106.766C287.08 106.266 286.48 106.066 285.78 106.066C285.08 106.066 284.48 106.266 283.98 106.766C283.48 107.266 283.28 107.766 283.28 108.466C283.28 109.166 283.48 109.766 283.98 110.266C284.48 110.766 284.98 110.966 285.78 110.966C286.58 110.966 287.08 110.766 287.58 110.266C288.08 109.766 288.28 109.166 288.28 108.466C288.28 107.866 288.08 107.266 287.58 106.766Z" fill="black"/>
<path d="M308.28 120.365C308.28 118.765 307.98 117.465 307.38 116.465C306.78 115.465 305.98 114.665 304.98 114.165C303.98 113.665 302.88 113.465 301.68 113.465C300.58 113.465 299.68 113.665 298.78 114.065C297.98 114.465 297.28 114.865 296.78 115.465C296.58 115.665 296.48 115.865 296.28 116.065V113.965H292.48V131.865H296.48V121.465C296.48 120.465 296.68 119.665 297.08 119.065C297.48 118.465 297.98 117.965 298.58 117.665C299.18 117.365 299.88 117.165 300.58 117.165C301.28 117.165 301.98 117.365 302.48 117.665C302.98 117.965 303.48 118.465 303.78 119.065C304.08 119.665 304.28 120.465 304.28 121.365V131.965H308.28V120.365Z" fill="black"/>
<path d="M329.18 113.865H325.28V116.065C325.18 115.865 325.08 115.665 324.88 115.565C324.38 114.965 323.68 114.465 322.88 114.065C321.98 113.665 320.98 113.465 319.88 113.465C318.48 113.465 317.08 113.865 315.88 114.565C314.68 115.265 313.68 116.365 312.98 117.665C312.28 119.065 311.88 120.665 311.88 122.565C311.88 124.465 312.28 126.065 312.98 127.465C313.68 128.865 314.68 129.865 315.88 130.565C317.08 131.265 318.38 131.665 319.78 131.665C320.98 131.665 322.08 131.465 322.88 131.065C323.68 130.665 324.38 130.165 324.88 129.465C324.98 129.365 325.08 129.265 325.18 129.065V130.565C325.18 131.665 324.98 132.565 324.68 133.365C324.38 134.165 323.78 134.765 323.08 135.165C322.38 135.565 321.58 135.765 320.68 135.765C319.48 135.765 318.58 135.565 317.98 135.165C317.38 134.765 316.88 134.165 316.68 133.465H312.78C312.88 134.465 313.18 135.365 313.88 136.165C314.58 136.965 315.38 137.765 316.58 138.265C317.78 138.765 319.18 139.065 320.78 139.065C322.58 139.065 324.08 138.765 325.38 138.065C326.68 137.365 327.68 136.365 328.38 135.065C329.08 133.765 329.38 132.265 329.38 130.565V113.865H329.18ZM324.68 125.465C324.28 126.265 323.78 126.965 323.08 127.465C322.38 127.965 321.58 128.165 320.58 128.165C319.68 128.165 318.88 127.965 318.18 127.465C317.48 126.965 316.98 126.365 316.58 125.465C316.18 124.565 315.98 123.665 315.98 122.565C315.98 121.465 316.18 120.565 316.58 119.665C316.98 118.765 317.48 118.165 318.18 117.665C318.88 117.165 319.68 116.965 320.58 116.965C321.58 116.965 322.38 117.165 323.08 117.665C323.78 118.165 324.38 118.765 324.68 119.665C325.08 120.465 325.28 121.465 325.28 122.565V122.665C325.28 123.665 325.08 124.565 324.68 125.465Z" fill="black"/>
<path d="M168.48 164.765C167.78 165.065 166.88 165.265 165.98 165.265C164.48 165.265 163.28 164.965 162.38 164.365C161.48 163.765 160.78 162.865 160.48 161.865H156.28C156.48 163.365 157.08 164.665 157.98 165.765C158.88 166.865 159.98 167.665 161.38 168.165C162.78 168.765 164.28 168.965 165.98 168.965C167.78 168.965 169.38 168.665 170.68 168.065C172.08 167.465 173.08 166.565 173.88 165.365C174.58 164.165 174.98 162.865 174.98 161.265C174.98 159.265 174.38 157.665 173.18 156.565C171.98 155.465 170.38 154.765 168.28 154.365L163.98 153.665C162.98 153.465 162.18 153.165 161.58 152.665C160.98 152.165 160.78 151.465 160.78 150.665C160.78 149.965 160.98 149.265 161.38 148.765C161.78 148.265 162.38 147.765 163.08 147.565C163.78 147.265 164.58 147.165 165.38 147.165C166.68 147.165 167.78 147.465 168.58 147.965C169.48 148.465 170.08 149.365 170.38 150.465H174.58C174.38 148.965 173.78 147.765 172.98 146.665C172.18 145.665 171.08 144.865 169.78 144.265C168.48 143.765 166.98 143.465 165.38 143.465C163.78 143.465 162.28 143.765 160.88 144.365C159.58 144.965 158.48 145.865 157.68 147.065C156.88 148.265 156.48 149.565 156.48 151.065C156.48 152.865 157.08 154.265 158.18 155.465C159.28 156.565 160.88 157.365 162.98 157.665L167.28 158.365C168.38 158.565 169.28 158.865 169.88 159.465C170.48 159.965 170.78 160.765 170.78 161.665C170.78 162.365 170.58 163.065 170.18 163.665C169.78 164.065 169.18 164.465 168.48 164.765Z" fill="black"/>
<path d="M185.38 175.166L194.98 150.666H190.68L185.98 163.366L181.28 150.666H176.98L183.88 168.166L181.08 175.166H185.38Z" fill="black"/>
<path d="M201.58 154.066C202.18 153.666 202.88 153.466 203.78 153.466C204.68 153.466 205.38 153.666 205.98 153.966C206.58 154.366 206.98 154.866 207.18 155.566H211.08C210.88 154.466 210.48 153.566 209.88 152.666C209.28 151.866 208.38 151.266 207.38 150.866C206.38 150.466 205.18 150.266 203.88 150.266C202.48 150.266 201.28 150.466 200.28 150.966C199.28 151.466 198.38 152.166 197.78 152.966C197.18 153.866 196.88 154.866 196.88 155.966C196.88 157.466 197.38 158.666 198.28 159.466C199.18 160.266 200.48 160.766 202.08 160.966L205.28 161.366C205.98 161.466 206.58 161.666 206.98 161.966C207.38 162.266 207.58 162.766 207.58 163.266C207.58 163.966 207.28 164.566 206.68 164.966C206.08 165.366 205.28 165.566 204.28 165.566C203.28 165.566 202.38 165.366 201.68 164.966C200.98 164.566 200.58 163.966 200.38 163.266H196.48C196.58 164.566 197.08 165.566 197.78 166.466C198.48 167.266 199.48 167.866 200.58 168.266C201.68 168.666 202.88 168.866 204.18 168.866C205.58 168.866 206.78 168.666 207.88 168.166C208.98 167.666 209.88 167.066 210.48 166.166C211.08 165.266 211.38 164.266 211.38 163.066C211.38 161.466 210.88 160.266 209.98 159.466C208.98 158.666 207.68 158.066 206.08 157.866L202.88 157.466C202.18 157.366 201.58 157.166 201.18 156.866C200.78 156.566 200.58 156.166 200.58 155.566C200.68 155.066 200.98 154.466 201.58 154.066Z" fill="black"/>
<path d="M222.28 168.465H224.08V164.965H222.98C222.18 164.965 221.58 164.765 221.08 164.365C220.68 163.965 220.38 163.265 220.38 162.365V153.965H224.08V150.565H220.48V145.865H216.48V150.565H213.58V153.965H216.48V162.565C216.48 164.565 216.98 166.065 217.88 166.965C218.88 168.065 220.28 168.465 222.28 168.465Z" fill="black"/>
<path d="M230.48 167.766C231.78 168.466 233.38 168.866 235.08 168.866C236.58 168.866 237.88 168.566 238.98 168.066C240.08 167.566 240.88 166.866 241.58 166.066C242.18 165.266 242.58 164.466 242.78 163.566H238.88C238.68 164.066 238.28 164.466 237.68 164.866C237.08 165.266 236.18 165.466 235.28 165.466C234.38 165.466 233.48 165.266 232.78 164.866C232.08 164.466 231.48 163.866 231.08 163.166C230.68 162.466 230.48 161.666 230.48 160.666C230.48 160.666 230.48 160.666 230.48 160.566H243.08V159.066C243.08 157.266 242.78 155.766 242.08 154.366C241.38 152.966 240.48 151.966 239.28 151.266C238.08 150.566 236.68 150.166 234.98 150.166C233.28 150.166 231.78 150.566 230.48 151.266C229.18 151.966 228.18 153.066 227.48 154.566C226.78 155.966 226.38 157.666 226.38 159.566C226.38 161.466 226.78 163.066 227.48 164.566C228.08 165.966 229.18 167.066 230.48 167.766ZM232.48 154.066C233.18 153.666 233.88 153.466 234.78 153.466C236.08 153.466 237.08 153.866 237.78 154.666C238.48 155.366 238.78 156.366 238.88 157.666H230.28C230.38 156.966 230.58 156.266 230.88 155.666C231.38 154.966 231.88 154.466 232.48 154.066Z" fill="black"/>
<path d="M246.78 168.466H250.78V157.766C250.78 156.966 250.98 156.166 251.28 155.566C251.68 154.966 252.08 154.566 252.58 154.266C253.08 153.966 253.78 153.766 254.38 153.766C254.98 153.766 255.58 153.866 256.08 154.166C256.58 154.466 256.98 154.866 257.28 155.466C257.58 156.066 257.78 156.766 257.78 157.666V168.466H261.78V157.766C261.78 156.966 261.98 156.166 262.28 155.566C262.58 154.966 263.08 154.566 263.58 154.266C264.18 153.966 264.78 153.766 265.38 153.766C265.98 153.766 266.58 153.866 267.18 154.166C267.68 154.466 268.08 154.866 268.38 155.466C268.68 156.066 268.88 156.766 268.88 157.666V168.466H272.88V156.966C272.88 155.466 272.58 154.166 271.98 153.166C271.38 152.166 270.58 151.366 269.68 150.866C268.68 150.366 267.68 150.166 266.58 150.166C265.58 150.166 264.68 150.366 263.78 150.766C262.88 151.166 262.18 151.666 261.48 152.266C261.18 152.566 260.98 152.766 260.78 153.066C260.38 152.366 259.78 151.766 259.18 151.266C258.08 150.566 256.88 150.166 255.58 150.166C254.68 150.166 253.78 150.366 252.98 150.666C252.18 151.066 251.48 151.466 250.98 152.066C250.78 152.266 250.68 152.466 250.48 152.666V150.566H246.68V168.466H246.78Z" fill="black"/>
</svg>
